<!DOCTYPE svg PUBLIC "-//W3C//DTD SVG 1.1//EN" "http://www.w3.org/Graphics/SVG/1.1/DTD/svg11.dtd">
<!-- Uploaded to: SVG Repo, www.svgrepo.com, Transformed by: SVG Repo Mixer Tools -->
<svg fill="#0A3161" height="800px" width="800px" version="1.1" id="Layer_1" xmlns="http://www.w3.org/2000/svg" xmlns:xlink="http://www.w3.org/1999/xlink" viewBox="0 0 512 512" xml:space="preserve">
<g id="SVGRepo_bgCarrier" stroke-width="0"/>
<g id="SVGRepo_tracerCarrier" stroke-linecap="round" stroke-linejoin="round"/>
<g id="SVGRepo_iconCarrier"> <g> <g> <g> <path d="M360.429,0H61.703C51.359,0,42.972,8.387,42.972,18.732v474.537c0,10.345,8.387,18.732,18.732,18.732h298.726 c6.897,0,12.488-5.591,12.488-12.488V12.488C372.917,5.591,367.326,0,360.429,0z M261.814,408.467h-107.74 c-5.172,0-9.366-4.192-9.366-9.366s4.193-9.366,9.366-9.366h107.74c5.172,0,9.366,4.192,9.366,9.366 S266.987,408.467,261.814,408.467z M306.37,329.378h-196.85c-5.172,0-9.366-4.192-9.366-9.366s4.193-9.366,9.366-9.366h196.85 c5.172,0,9.366,4.192,9.366,9.366C315.735,325.185,311.542,329.378,306.37,329.378z M315.735,218.728 c0,5.174-4.193,9.366-9.366,9.366h-196.85c-5.172,0-9.366-4.192-9.366-9.366V112.898c0-5.174,4.193-9.366,9.366-9.366h196.85 c5.172,0,9.366,4.192,9.366,9.366V218.728z"/> <path d="M456.54,186.277h-52.404c-6.897,0-12.488,5.591-12.488,12.488v114.471c0,6.897,5.591,12.488,12.488,12.488h52.404 c6.897,0,12.488-5.591,12.488-12.488V198.765C469.028,191.868,463.437,186.277,456.54,186.277z"/> <path d="M450.297,0h-46.16c-6.897,0-12.488,5.591-12.488,12.488v142.57c0,6.897,5.591,12.488,12.488,12.488h52.404 c6.897,0,12.488-5.591,12.488-12.488V18.732C469.028,8.387,460.641,0,450.297,0z"/> <path d="M456.54,344.455h-52.404c-6.897,0-12.488,5.591-12.488,12.488v142.57c0,6.897,5.591,12.488,12.488,12.488h46.16 c10.345,0,18.732-8.387,18.732-18.732V356.943C469.028,350.046,463.437,344.455,456.54,344.455z"/> </g> </g> </g> </g>
</svg>