<!DOCTYPE svg PUBLIC "-//W3C//DTD SVG 1.1//EN" "http://www.w3.org/Graphics/SVG/1.1/DTD/svg11.dtd">
<!-- Uploaded to: SVG Repo, www.svgrepo.com, Transformed by: SVG Repo Mixer Tools -->
<svg fill="#0A3161" height="800px" width="800px" version="1.1" id="Layer_1" xmlns="http://www.w3.org/2000/svg" xmlns:xlink="http://www.w3.org/1999/xlink" viewBox="0 0 512.001 512.001" xml:space="preserve">
<g id="SVGRepo_bgCarrier" stroke-width="0"/>
<g id="SVGRepo_tracerCarrier" stroke-linecap="round" stroke-linejoin="round"/>
<g id="SVGRepo_iconCarrier"> <g> <g> <circle cx="186.418" cy="42.143" r="42.143"/> </g> </g> <g> <g> <path d="M261.021,107.877c-8.643-6.593-19.213-10.163-30.084-10.163h-10.953c-2.662,6.956-22.349,58.388-25.206,65.85 l5.943-27.995c0.417-1.966,0.114-4.016-0.854-5.777l-8.161-14.843l7.255-13.195c1.08-1.965-0.343-4.377-2.588-4.377h-19.914 c-2.243,0-3.67,2.41-2.588,4.377l7.255,13.195l-8.191,14.898c-0.95,1.728-1.26,3.735-0.877,5.669l5.196,28.048 c-2.635-6.756-22.123-58.613-24.945-65.85h-20.017c-16.028,0-30.702,8.768-38.297,22.886l-14.058,26.131L52.37,107.691 c-6.478-9.172-19.164-11.358-28.338-4.878c-9.173,6.478-11.357,19.165-4.878,28.339l46.523,65.873 c8.721,12.351,27.373,11.182,34.514-2.098c18.549-34.608,31.876-54.302,31.876-54.302l0.01,346.975 c0,13.475,10.924,24.4,24.399,24.4s24.399-10.924,24.399-24.4V292.57h10.535V487.6c0,13.475,10.924,24.4,24.399,24.4 s24.399-10.924,24.399-24.4c0-171.578-0.443-199.03-0.443-346.975l31.225,26.004l0.106-21.136 c0.045-9.165,1.942-17.903,5.321-25.869L261.021,107.877z"/> </g> </g> <g> <g> <path d="M495.823,145.591c-0.132-26.401-21.718-47.877-48.118-47.877h-20.436c-0.082-0.137-0.164-0.275-0.248-0.411 c-1.577,4.121-5.506,14.383-25.362,66.26l5.943-27.995c0.417-1.966,0.114-4.016-0.855-5.777l-8.161-14.843l7.255-13.195 c1.08-1.964-0.343-4.377-2.588-4.377H383.34c-2.242,0-3.671,2.409-2.588,4.377l7.255,13.195l-8.192,14.898 c-0.95,1.728-1.26,3.735-0.877,5.669l5.196,28.048c-2.702-6.93-22.123-58.613-24.945-65.85h-20.644 c-26.4,0-47.986,21.478-48.118,47.876l-0.751,149.38c-0.056,11.229,9.002,20.379,20.231,20.435c0.034,0,0.069,0,0.104,0 c11.182,0,20.275-9.036,20.331-20.23l0.751-149.38c0.011-2.165,1.771-3.912,3.935-3.907c2.164,0.006,3.915,1.762,3.915,3.927 c0.001,49.701,0.01,332.104,0.01,341.787c0,13.475,10.924,24.4,24.399,24.4s24.399-10.924,24.399-24.4v-195.03h10.535v195.03 c0,13.475,10.924,24.4,24.399,24.4s24.399-10.924,24.399-24.4c0-322.866-0.433-137.714-0.442-342.12 c0-2.351,1.905-4.258,4.256-4.259c2.351-0.001,4.259,1.904,4.26,4.255c0,0.104-0.002,0.21-0.006,0.318l0.751,149.378 c0.056,11.195,9.149,20.23,20.331,20.23c0.034,0,0.07,0,0.104,0c11.229-0.056,20.288-9.206,20.231-20.435L495.823,145.591z"/> </g> </g> <g> <g> <path d="M393.297,0c-23.273,0-42.141,18.866-42.141,42.141c0,23.313,18.933,42.14,42.141,42.14 c23.043,0,42.141-18.675,42.141-42.141C435.438,18.866,416.57,0,393.297,0z"/> </g> </g> </g>
</svg>