<!DOCTYPE svg PUBLIC "-//W3C//DTD SVG 1.1//EN" "http://www.w3.org/Graphics/SVG/1.1/DTD/svg11.dtd">
<!-- Uploaded to: SVG Repo, www.svgrepo.com, Transformed by: SVG Repo Mixer Tools -->
<svg fill="#0A3161" height="800px" width="800px" version="1.1" id="Layer_1" xmlns="http://www.w3.org/2000/svg" xmlns:xlink="http://www.w3.org/1999/xlink" viewBox="0 0 512.001 512.001" xml:space="preserve" stroke="#0A3161">
<g id="SVGRepo_bgCarrier" stroke-width="0"/>
<g id="SVGRepo_tracerCarrier" stroke-linecap="round" stroke-linejoin="round"/>
<g id="SVGRepo_iconCarrier"> <g> <g> <path d="M497.996,82.37H269.958l-12.303,21.652H487.17v204.705H232.608V148.1l-21.652,35.78v135.674 c0,5.98,4.847,10.826,10.826,10.826h276.214c5.978,0,10.826-4.847,10.826-10.826V93.196 C508.822,87.216,503.974,82.37,497.996,82.37z"/> </g> </g> <g> <g> <path d="M291.098,246.046h-28.48c-2.1,0-3.803,1.703-3.803,3.803v38.456c0,2.1,1.703,3.803,3.803,3.803h28.48 c2.1,0,3.803-1.703,3.803-3.803v-38.456C294.901,247.749,293.198,246.046,291.098,246.046z"/> </g> </g> <g> <g> <path d="M347.033,217.201h-28.48c-2.1,0-3.803,1.703-3.803,3.803v67.301c0,2.1,1.703,3.803,3.803,3.803h28.48 c2.1,0,3.803-1.703,3.803-3.803v-67.301C350.836,218.903,349.133,217.201,347.033,217.201z"/> </g> </g> <g> <g> <path d="M402.967,188.567h-28.48c-2.1,0-3.803,1.703-3.803,3.803v95.935c0,2.1,1.703,3.803,3.803,3.803h28.48 c2.1,0,3.803-1.703,3.803-3.803V192.37C406.77,190.269,405.067,188.567,402.967,188.567z"/> </g> </g> <g> <g> <path d="M458.902,156.581h-28.48v-0.001c-2.1,0-3.803,1.703-3.803,3.803v127.921c0,2.1,1.703,3.803,3.803,3.803h28.48 c2.1,0,3.803-1.703,3.803-3.803v-127.92C462.705,158.283,461.003,156.581,458.902,156.581z"/> </g> </g> <g> <g> <path d="M184.749,78.934c-1.261-20.191-18.028-36.179-38.537-36.179c-21.331,0-38.621,17.292-38.621,38.622 s17.291,38.621,38.621,38.621C168.249,119.999,186.153,101.432,184.749,78.934z"/> </g> </g> <g> <g> <path d="M271.797,2.437c-8.945-5.086-20.324-1.953-25.409,6.996l-69.067,121.548h0.163c-18.966,49.55-7.27,18.992-23.61,61.68 l5.447-25.657c0.382-1.802,0.105-3.68-0.782-5.295l-7.48-13.604l6.65-12.093c0.991-1.801-0.315-4.012-2.372-4.012h-18.25 c-2.055,0-3.364,2.209-2.372,4.012l6.65,12.093l-7.507,13.654c-0.87,1.583-1.155,3.423-0.803,5.195l4.762,25.706 c-9.04-23.182-11.162-30.348-20.168-53.442l-0.18,0.031L37.329,18.855c-5.702-8.568-17.272-10.891-25.839-5.187 C2.922,19.37,0.601,30.938,6.303,39.506c93.904,141.079,87.376,131.797,90.094,134.178l0.009,315.956 c0,12.35,10.012,22.362,22.362,22.362c12.35,0,22.362-10.012,22.362-22.362V310.895h9.655v178.744 c0,12.35,10.012,22.362,22.362,22.362s22.362-10.012,22.362-22.362c0-230.81-0.406-147.921-0.406-317.295 c0,0,39.803-67.165,83.687-144.498C283.877,18.897,280.745,7.521,271.797,2.437z"/> </g> </g> <g> <g> <path d="M418.148,122.248l-21.709-5.662c-4.345-1.133-8.774,1.469-9.906,5.807c-1.132,4.339,1.468,8.774,5.807,9.906l2.135,0.556 L255.52,194.538c-4.097,1.82-5.945,6.617-4.126,10.716c1.818,4.096,6.613,5.947,10.716,4.127l141.28-62.715l-0.808,3.098 c-1.132,4.339,1.468,8.774,5.807,9.906c4.343,1.133,8.776-1.473,9.906-5.807l5.661-21.709 C425.087,127.814,422.488,123.379,418.148,122.248z"/> </g> </g> </g>
</svg>