<!DOCTYPE svg PUBLIC "-//W3C//DTD SVG 1.1//EN" "http://www.w3.org/Graphics/SVG/1.1/DTD/svg11.dtd">
<!-- Uploaded to: SVG Repo, www.svgrepo.com, Transformed by: SVG Repo Mixer Tools -->
<svg fill="#0A3161" height="800px" width="800px" version="1.1" id="Layer_1" xmlns="http://www.w3.org/2000/svg" xmlns:xlink="http://www.w3.org/1999/xlink" viewBox="0 0 512 512" xml:space="preserve">
<g id="SVGRepo_bgCarrier" stroke-width="0"/>
<g id="SVGRepo_tracerCarrier" stroke-linecap="round" stroke-linejoin="round"/>
<g id="SVGRepo_iconCarrier"> <g> <g> <path d="M260.243,118.962l-58.795-9.694c-3.353-0.553-6.519,1.717-7.072,5.07l-8.942,54.233l4.318-2.692 c14.831-9.244,34.344-4.716,43.586,10.113c8.181,13.125,5.568,29.914-5.42,40.01l15.894,2.62c3.353,0.553,6.519-1.717,7.072-5.07 l14.429-87.517C265.866,122.682,263.596,119.515,260.243,118.962z"/> </g> </g> <g> <g> <path d="M220.931,183.726c-4.972-7.978-15.469-10.41-23.446-5.44l-24.792,15.454c-0.093-18.572-0.066-13.193-0.151-30.153 c-0.112-22.096-18.178-40.072-40.275-40.072c-28.238,0-63.559,0-91.366,0c-22.097,0-40.163,17.976-40.275,40.072L0,288.618 c-0.047,9.4,7.535,17.056,16.933,17.104c0.03,0,0.058,0,0.087,0c9.253,0,16.969-7.502,17.017-16.933 c0.275-54.74,0.311-61.869,0.628-125.03c0.009-1.812,1.483-3.274,3.294-3.27c1.811,0.005,3.278,1.475,3.278,3.287 c0.001,43.986,0.008,286.074,0.008,286.074c0,11.279,9.143,20.423,20.422,20.423c5.243,0,10.01-1.992,13.626-5.241 c4.163-3.739,6.796-9.146,6.796-15.181V286.611h8.819v163.24c0,11.279,9.143,20.423,20.422,20.423s20.422-9.143,20.422-20.423 c0-185.414-0.354-199.769-0.369-286.112c0-1.967,1.593-3.561,3.56-3.562c1.967-0.001,3.562,1.593,3.563,3.559 c0,0.008,0,0.016,0,0.022c0.072,14.207,0.249,49.434,0.305,60.635c0.067,13.319,14.76,21.377,26.021,14.357l50.661-31.579 C223.469,202.199,225.905,191.702,220.931,183.726z"/> </g> </g> <g> <g> <circle cx="86.731" cy="76.999" r="35.272"/> </g> </g> <g> <g> <circle cx="382.342" cy="76.656" r="34.275"/> </g> </g> <g> <g> <path d="M465.723,160.797c-0.107-21.472-17.664-38.94-39.135-38.94h-16.951c-13.281,34.697-7.103,18.554-20.501,53.559 l4.833-22.769c0.339-1.598,0.093-3.266-0.694-4.699l-6.638-12.072l5.9-10.733c0.879-1.599-0.279-3.56-2.106-3.56h-16.195 c-1.823,0-2.985,1.96-2.106,3.56l5.901,10.733l-6.663,12.116c-0.772,1.405-1.025,3.038-0.713,4.611l4.226,22.812 c-9.017-23.125-6.769-18.888-20.289-53.559h-16.791c-21.471,0-39.028,17.468-39.136,38.94l-0.387,77.15h33.076l0.388-76.983 c0.009-1.762,1.442-3.182,3.201-3.177c1.761,0.005,3.185,1.434,3.185,3.194v76.966h87.597v-77.394c0-1.913,1.55-3.465,3.463-3.465 c1.913,0,3.465,1.55,3.465,3.463c0,0.134-0.002,0.271-0.008,0.411l0.387,76.984h33.076L465.723,160.797z"/> </g> </g> <g> <g> <path d="M498.11,254.153H266.284c-7.671,0-13.891,6.219-13.891,13.891c0,7.671,6.219,13.891,13.891,13.891h23.924 c-0.242,2.068-0.163-7.396-0.163,134.09c0,12.164,9.861,22.025,22.025,22.025h140.254c12.164,0,22.025-9.861,22.025-22.025 c0-141.456,0.078-132.025-0.163-134.09h23.924c7.672,0,13.892-6.219,13.892-13.891C512,260.372,505.781,254.153,498.11,254.153z M446.267,369.763c0,6.491-5.262,11.754-11.754,11.754H329.881c-6.491,0-11.754-5.262-11.754-11.754v-39.922 c0-6.491,5.262-11.754,11.754-11.754h104.632c6.491,0,11.754,5.262,11.754,11.754V369.763z"/> </g> </g> <g> <g> <path d="M338.65,332.706c-1.986,0-3.973,0.713-3.973,2.394v32.396c0,1.63,1.986,2.445,3.973,2.445 c1.987,0,3.974-0.815,3.974-2.445v-32.396C342.624,333.42,340.637,332.706,338.65,332.706z"/> </g> </g> <g> <g> <path d="M370.179,332.706c-1.986,0-3.973,0.713-3.973,2.394v17.318l-8.252-15.74c-1.935-3.719-3.004-3.974-5.858-3.974 c-1.986,0-3.973,0.765-3.973,2.445v32.345c0,1.63,1.986,2.445,3.973,2.445s3.974-0.815,3.974-2.445v-17.318l9.678,17.624 c0.967,1.782,2.598,2.139,4.431,2.139c1.987,0,3.974-0.815,3.974-2.445v-32.396C374.152,333.42,372.166,332.706,370.179,332.706z"/> </g> </g> <g> <g> <path d="M400.788,332.706h-17.674c-1.733,0-3.463,0.815-3.463,2.445v32.345c0,1.63,1.986,2.445,3.973,2.445 s3.974-0.815,3.974-2.445v-13.142h7.691c1.681,0,2.394-1.63,2.394-3.004c0-1.63-0.865-3.107-2.394-3.107h-7.691v-8.608h13.192 c1.529,0,2.394-1.63,2.394-3.515C403.183,334.489,402.469,332.706,400.788,332.706z"/> </g> </g> <g> <g> <path d="M417.596,332.706c-7.029,0-12.479,3.26-12.479,12.021v13.498c0,8.762,5.45,12.021,12.479,12.021 c7.03,0,12.531-3.26,12.531-12.021v-13.498C430.126,335.967,424.626,332.706,417.596,332.706z M422.18,358.226 c0,3.515-1.732,5.094-4.584,5.094s-4.534-1.58-4.534-5.094v-13.498c0-3.515,1.682-5.094,4.534-5.094 c2.853,0,4.584,1.579,4.584,5.094V358.226z"/> </g> </g> </g>
</svg>